<svg viewBox="0 0 128 128" xmlns="http://www.w3.org/2000/svg">
  <path fill="#439934" d="M64 0C28.7 0 0 28.7 0 64s28.7 64 64 64 64-28.7 64-64S99.3 0 64 0z"/>
  <path fill="#fff" d="M68.2 104.4l-3.1-.8s.4-16.5-5.4-17.7c-3.9-3-1.2-129.6 12.6.4 0 0-3.2 1.9-3.8 7.1-.7 5.3-.3 11-.3 11z"/>
  <path fill="#c4d5c9" d="M65.1 86l3.1.8.3-11.6-3.4 10.8z"/>
  <path fill="#fff" d="M65.9 82.5c-.2-1.4-.6-2.6-1.2-3.6.8.6 1.8 1.5 3.1 2.8l-1.9.8zm-1.9-14.7c.1 0 .2.1.4.1.8.5 1.6 1.2 2.2 2 .7.9 1.2 1.9 1.5 3l-4.1-5.1zM62.9 63c.3.3.7.7 1.1 1.1.4.5.8 1 1.2 1.5l-2.3-2.6zm-1.8-3.1c.1.1.3.3.5.5.5.5 1 1.1 1.5 1.7l-2-2.2zm22.1-9.9c-3.3-20.3-10.3-26.5-11.4-29.7-.9-1.8-1.8-4.8-1.8-4.8l-.2 0c0 0 0 .1-.1.2l-.1.2v.1c-.1 3.3-.5 11.2 1.2 18.6 2.4 10.2 7.9 16.1 11.9 25.4.4.9.8 1.9 1.1 2.9 2.4 7 2.7 14.6 1 21.8-.4 1.7-.9 3.3-1.6 4.9-.6 1.5-1.3 2.9-2.1 4.2-.8 1.3-1.6 2.6-2.6 3.8-.9 1.2-1.9 2.3-3 3.3 0 0 8.7-5.5 12.1-18.4 3.4-13-.7-28.6-4.4-32.5z"/>
</svg>

