<svg viewBox="0 0 128 128" xmlns="http://www.w3.org/2000/svg">
  <path fill="#00758F" d="M64 0C28.7 0 0 28.7 0 64s28.7 64 64 64 64-28.7 64-64S99.3 0 64 0z"/>
  <path fill="#fff" d="M95 83.5c-3.8-.3-6.7-.2-9.2.8-1 .4-2.6.4-2.7 1.6.5.5.6 1.3 1 2 .8 1.2 2.1 2.9 3.3 3.8 1.3 1 2.7 2 4.1 2.9 2.5 1.5 5.3 2.4 7.7 3.9 1.4.9 2.8 2 4.2 3 .7.5 1.2 1.3 2.1 1.6v-.2c-.5-.6-.6-1.4-1-2.1-.6-.7-1.3-1.3-2-1.9-1.9-2.5-4.2-4.8-6.7-6.6-2-1.5-6.4-3.4-7.2-5.8l-.1-.1c1.4-.2 3-.4 4.4-.8 2.2-.6 4.2-.4 6.5-1 1-.3 2.1-.6 3.1-1v-.6c-1.2-1.2-2-2.8-3.2-3.9-3.3-3-6.9-5.9-10.6-8.4-2-1.4-4.5-2.3-6.7-3.4-.8-.4-2.1-.6-2.6-1.3-.9-1.3-1.5-2.9-2.2-4.4-1.5-3.2-3-6.7-4.4-10.1-1-2.3-1.6-4.6-2.9-6.8-5.9-10.2-12.3-16.4-22.2-22.5-2.1-1.3-4.6-1.8-7.3-2.5-.9 0-1.8-.1-2.7-.1-.6-.2-1.1-.9-1.5-1.2-3-2.4-10.6-7.6-12.8-.7-1.4 4.4 2.1 8.6 3.3 10.8.9 1.5 2 3.2 2.6 4.9.4 1.1.5 2.3.9 3.5.9 2.6 1.8 5.5 2.9 7.9.6 1.2 1.2 2.5 2 3.6.5.6 1.2.9 1.4 1.8-.8 1.1-.8 2.8-1.3 4.2-2 6.2-.7 13.9 1.6 18.5.7 1.4 2.4 4.4 4.7 3.3 2-.9 1.6-4 2.2-6.7.1-.6.1-1 .4-1.4v.1c.7 1.5 1.5 2.9 2.2 4.4 1.7 2.7 4.6 5.5 7.1 7.4 1.3 1 2.4 2.7 4.1 3.3v-.2h-.1c-.3-.5-.8-.7-1.2-1.1-1-1-2.1-2.2-2.9-3.3-2.3-3.2-4.4-6.7-6.2-10.3-.9-1.7-1.6-3.6-2.3-5.4-.3-.7-.3-1.7-.8-2.1-.8 1.1-1.9 2.1-2.5 3.5-.9 2.2-1 4.8-1.4 7.5-.2.1-.1 0-.2.1-1.4-.3-1.9-1.8-2.4-3-.9-2.8-1-7.3-.3-10.5.2-.8.9-3.5.7-4.3-.2-.8-.9-1.2-1.4-1.8-.5-.7-1-1.6-1.4-2.4-1-2.4-1.4-5-2.4-7.5-.5-1.2-1.4-2.4-2.1-3.5-.8-1.3-1.7-2.2-2.4-3.7-.2-.5-.6-1.3-.2-1.9.1-.4.3-.6.7-.7.6-.5 2.4.1 3 .4 1.8.8 3.3 1.5 4.8 2.5.7.5 1.4 1.4 2.3 1.7h1c1.6.4 3.4.1 4.8.6 2.6.9 4.9 2.3 7 3.7 6.3 4.4 11.5 10.6 15.1 18 .6 1.2.9 2.3 1.4 3.5 1.1 2.5 2.4 5 3.5 7.5 1.1 2.4 2.2 4.9 3.8 6.9 1.8 2.1 3.2 4.1 5.1 5.9.9 1 4.1 1.5 5.6 2.1.6.3 1.8.5 2.3.9 1.1.8 2.2 1.8 3.3 2.7.7.6 2.7 1.9 2.9 2.7z"/>
</svg>

