<svg viewBox="0 0 128 128" xmlns="http://www.w3.org/2000/svg">
  <path fill="#A41E11" d="M64 0C28.7 0 0 28.7 0 64s28.7 64 64 64 64-28.7 64-64S99.3 0 64 0z"/>
  <path fill="#fff" d="M102.5 69.6c-3.9 2-24.1 10.3-28.4 12.5s-6.7 2.2-10.1.5-25.1-10.4-29-12.3c-1.9-.9-2.9-1.7-2.9-2.4V60c0 .7 1 1.5 2.9 2.4 3.9 1.9 25.1 10.4 29 12.3 3.4 1.7 5.7 1.7 10.1-.5s24.5-10.5 28.4-12.5c2-1 2.9-1.8 2.9-2.6v7.9c0 .8-1 1.6-2.9 2.6zm0-12.4c-3.9 2-24.1 10.3-28.4 12.5s-6.7 2.2-10.1.5-25.1-10.4-29-12.3c-1.9-.9-2.9-1.7-2.9-2.4v-7.9c0 .7 1 1.5 2.9 2.4 3.9 1.9 25.1 10.4 29 12.3 3.4 1.7 5.7 1.7 10.1-.5s24.5-10.5 28.4-12.5c2-1 2.9-1.8 2.9-2.6v7.9c0 .8-1 1.6-2.9 2.6zm-68.4-8.8c3.9-1.9 25.1-9.8 29-11.4 3.4-1.4 5.7-1.4 10.1.3s24.5 9.8 28.4 11.6c3.9 1.8 3.9 3.1 0 4.9-3.9 2-24.1 10.3-28.4 12.5s-6.7 2.2-10.1.5-25.1-10.4-29-12.3c-3.9-1.9-3.9-3.1 0-6.1z"/>
  <ellipse fill="#fff" cx="77.3" cy="50.5" rx="7.7" ry="3"/>
  <path fill="#A41E11" d="M52.9 45.9l13.2 2.5-4.3 5.9z"/>
  <path fill="#7A0C00" d="M52.9 45.9l8.9 8.4-4.3-2.5z"/>
</svg>

