<svg width="527" height="132" viewBox="0 0 527 132" fill="none" xmlns="http://www.w3.org/2000/svg">
<path d="M117.228 131.444L135.596 94.5334L103.596 29.481H128.676L142.516 58.2125C143.728 60.8273 144.796 63.203 145.721 65.3236C146.63 67.4601 147.395 69.5329 148.001 71.5259C148.702 69.5169 149.531 67.4601 150.488 65.3236C151.445 63.1871 152.577 60.8114 153.884 58.2125L167.995 29.481H192.167L141.639 131.444H117.244H117.228Z" fill="#0F172A"/>
<path d="M201.534 107.862V29.4805H221.911V38.1063C224.701 34.4551 228.129 31.6649 232.227 29.7516C236.325 27.8382 240.725 26.8816 245.413 26.8816C250.978 26.8816 256.192 28.205 261.023 30.8677C265.854 33.5303 269.776 37.4048 272.774 42.491C275.771 47.5931 277.286 53.7476 277.286 60.9704V107.862H254.549V63.9679C254.549 59.6151 253.242 55.7407 250.627 52.3445C248.012 48.9484 244.265 47.2424 239.386 47.2424C235.464 47.2424 231.956 48.5657 228.863 51.2284C225.77 53.8911 224.223 58.0366 224.223 63.6968V107.846H201.486L201.534 107.862Z" fill="#0F172A"/>
<path d="M328.391 109.951C321.073 109.951 314.456 108.07 308.54 104.339C302.625 100.592 297.889 95.6016 294.366 89.3834C290.842 83.1651 289.072 76.2613 289.072 68.6718C289.072 61.0824 290.842 54.1785 294.366 47.8965C297.889 41.6144 302.609 36.6398 308.54 32.9408C314.456 29.2417 321.089 27.3922 328.391 27.3922C332.569 27.3922 336.443 27.9981 340.015 29.2258C343.586 30.4535 346.807 32.1914 349.677 34.4555V0H372.414V107.863H352.818V100.162C349.852 103.207 346.281 105.599 342.103 107.353C337.926 109.106 333.35 109.967 328.391 109.967V109.951ZM330.99 89.9733C334.817 89.9733 338.309 89.0166 341.434 87.1033C344.575 85.19 347.078 82.623 348.943 79.4023C350.809 76.1815 351.75 72.61 351.75 68.6878C351.75 64.7655 350.809 61.194 348.943 57.9732C347.062 54.7525 344.575 52.1855 341.434 50.2722C338.293 48.3589 334.817 47.4022 330.99 47.4022C327.163 47.4022 323.672 48.3589 320.546 50.2722C317.405 52.1855 314.902 54.7525 313.037 57.9732C311.155 61.194 310.23 64.7655 310.23 68.6878C310.23 72.61 311.171 76.1815 313.037 79.4023C314.902 82.623 317.405 85.19 320.546 87.1033C323.688 89.0166 327.163 89.9733 330.99 89.9733Z" fill="#0F172A"/>
<path d="M389.647 107.863V29.4807H410.024V42.9377C412.718 38.4095 416.146 34.9018 420.276 32.4145C424.406 29.9272 429.269 28.6995 434.833 28.6995L439.792 48.8211C438.134 48.2949 436.268 48.0398 434.179 48.0398C427.642 48.0398 422.381 50.1604 418.379 54.3697C414.377 58.5949 412.368 64.6218 412.368 72.4664V107.863H389.631H389.647Z" fill="#0F172A"/>
<path d="M482.396 109.952C475.174 109.952 468.589 108.07 462.673 104.339C456.758 100.593 452.022 95.602 448.499 89.3838C444.975 83.1655 443.205 76.2617 443.205 68.6722C443.205 61.0827 444.975 54.1789 448.499 47.8969C452.022 41.6148 456.742 36.6402 462.673 32.9412C468.589 29.2421 475.174 27.3926 482.396 27.3926C487.451 27.3926 492.059 28.2855 496.236 30.0712C500.414 31.857 503.985 34.3124 506.951 37.4534V29.4813H526.546V107.863H506.951V99.891C503.985 103.032 500.414 105.487 496.236 107.273C492.059 109.059 487.435 109.952 482.396 109.952ZM485.139 89.9737C488.965 89.9737 492.457 89.017 495.582 87.1037C498.723 85.1904 501.227 82.6234 503.092 79.4027C504.958 76.1819 505.898 72.6104 505.898 68.6881C505.898 64.7659 504.958 61.1944 503.092 57.9736C501.211 54.7529 498.723 52.1859 495.582 50.2726C492.441 48.3592 488.965 47.4026 485.139 47.4026C481.312 47.4026 477.82 48.3592 474.695 50.2726C471.554 52.1859 469.051 54.7529 467.185 57.9736C465.304 61.1944 464.379 64.7659 464.379 68.6881C464.379 72.6104 465.32 76.1819 467.185 79.4027C469.051 82.6234 471.554 85.1904 474.695 87.1037C477.836 89.017 481.312 89.9737 485.139 89.9737Z" fill="#0F172A"/>
<path d="M0 131.444L53.605 23.6612H0.191333V0H92.302L38.697 107.783H92.7963V131.444H0Z" fill="white"/>
<path d="M11.767 107.784L53.605 23.6619H0.191333L0 131.445L0.191333 107.784H11.767Z" fill="#06B6D4"/>
<path d="M11.767 107.783L0 131.444H92.7963V107.783H11.767Z" fill="#06B6D4"/>
<path d="M0.191333 107.783L0 131.444L11.767 107.783H0.191333Z" fill="#0F172A"/>
<path d="M92.7946 107.783L92.3003 0V23.6612H80.5334L38.6953 107.783H92.7946Z" fill="#4F46E5"/>
<path d="M0.191406 0V23.6612H80.5351L92.3021 0H0.191406Z" fill="#4F46E5"/>
<path d="M92.306 0L80.5391 23.6612H92.306V0Z" fill="#0F172A"/>
</svg>
