<svg width="46" height="65" viewBox="0 0 46 65" fill="none" xmlns="http://www.w3.org/2000/svg">
<path d="M0 64.9995L26.5077 11.7005H0.0946141V0H45.6434L19.1357 53.299H45.8878V64.9995H0Z" fill="#4F46E5"/>
<path d="M5.81877 53.2994L26.5077 11.7009H0.0946141L0 64.9999L0.0946141 53.2994H5.81877Z" fill="#06B6D4"/>
<path d="M5.81877 53.2991L0 64.9996H45.8878V53.2991H5.81877Z" fill="#06B6D4"/>
<path d="M0.0946141 53.2991L0 64.9996L5.81877 53.2991H0.0946141Z" fill="#0F172A"/>
<path d="M45.8869 53.299L45.6425 0V11.7005H39.8237L19.1348 53.299H45.8869Z" fill="#4F46E5"/>
<path d="M0.0957031 0V11.7006H39.8257L45.6445 0H0.0957031Z" fill="#4F46E5"/>
<path d="M45.6449 0L39.8262 11.7006H45.6449V0Z" fill="#0F172A"/>
</svg>
