<svg width="100" height="18" viewBox="0 0 100 18" fill="none" xmlns="http://www.w3.org/2000/svg">
<g clip-path="url(#clip0_8298_10492)">
<path d="M0.0957031 17.932L9.01713 3.53742H1.3363C1.20749 3.53742 1.09902 3.42858 1.09902 3.29933V0.564633C1.09902 0.435382 1.20749 0.326538 1.3363 0.326538H14.8811L14.9015 0.394565L6.11563 14.7823H14.1015C14.2303 14.7823 14.3388 14.8912 14.3388 15.0204V17.7551C14.3388 17.8844 14.2303 17.9932 14.1015 17.9932H0.116041L0.0957031 17.9252V17.932Z" fill="#4F46E5"/>
<path d="M21.7743 9.66667L15.829 0.700688C15.7205 0.537422 15.8358 0.326538 16.0256 0.326538H19.7202C19.8016 0.326538 19.8829 0.367354 19.9236 0.442184L23.5641 6.37416H23.659L27.4011 0.442184C27.4418 0.374157 27.5231 0.326538 27.6045 0.326538H31.2246C31.4144 0.326538 31.5296 0.544225 31.4211 0.700688L25.4283 9.65987C25.4012 9.70069 25.3877 9.74831 25.3877 9.79593V17.7551C25.3877 17.8912 25.2792 17.9932 25.1504 17.9932H22.0591C21.9235 17.9932 21.8218 17.8844 21.8218 17.7551V9.79593C21.8218 9.74831 21.8082 9.70069 21.7811 9.65987L21.7743 9.66667Z" fill="black"/>
<path d="M33.1709 0.326538H35.3402C35.408 0.326538 35.469 0.353749 35.5165 0.408171L45.7802 11.8163L45.8276 11.7959V0.564633C45.8276 0.435382 45.9361 0.326538 46.0649 0.326538H49.0478C49.1766 0.326538 49.285 0.435382 49.285 0.564633V17.7279C49.285 17.8572 49.1833 17.966 49.0478 17.966L46.8716 17.9796C46.8038 17.9796 46.736 17.9524 46.6954 17.898L36.4384 6.39457L36.391 6.41497V17.7551C36.391 17.8844 36.2825 17.9932 36.1537 17.9932H33.1709C33.0421 17.9932 32.9336 17.8844 32.9336 17.7551V0.564633C32.9336 0.435382 33.0421 0.326538 33.1709 0.326538Z" fill="black"/>
<path d="M58.7478 0.326538C63.3712 0.326538 67.1337 4.19729 67.1337 8.9728C67.1337 14.1089 63.1611 18 58.3953 18H52.6533C52.5245 18 52.416 17.8912 52.416 17.7619V0.564633C52.416 0.435382 52.5245 0.326538 52.6533 0.326538H58.7478ZM58.0021 14.9048C61.0595 14.9048 63.3509 12.585 63.3509 9.06803C63.3509 5.55103 61.1341 3.42178 57.8597 3.42178H56.2259C56.0971 3.42178 55.9887 3.53062 55.9887 3.65987V14.6735C55.9887 14.8027 56.0971 14.9116 56.2259 14.9116H58.0021V14.9048Z" fill="black"/>
<path d="M69.4941 0.571439C69.4941 0.435384 69.6026 0.333344 69.7314 0.333344H75.8191C78.6461 0.333344 80.9578 2.25851 80.9578 5.32654C80.9578 8.2245 79.4189 9.76192 77.3173 10.4354C77.1614 10.483 77.0936 10.6735 77.1953 10.8095L82.3068 17.6259C82.4289 17.7823 82.3068 18.0136 82.117 18.0136H78.1919C78.1105 18.0136 78.0359 17.9728 77.9953 17.9048L73.304 10.8163C73.2091 10.8163 73.1414 10.8163 73.0736 10.7959V17.7755C73.0736 17.9116 72.9651 18.0136 72.8363 18.0136H69.745C69.6094 18.0136 69.5077 17.9048 69.5077 17.7755V0.571439H69.4941ZM73.9345 8.38777C76.0157 8.38777 77.2292 7.56464 77.2292 5.57824C77.2292 4.05443 76.1988 3.2313 74.6124 3.2313H73.3108C73.1752 3.2313 73.0736 3.34015 73.0736 3.4694V8.36056C73.3312 8.38096 73.6362 8.38096 73.9345 8.38096V8.38777Z" fill="black"/>
<path d="M89.0515 11.3878L90.0277 9.0068L91.4514 5.53061H91.4988L93.7902 11.3878L95.2274 15.0816L96.3256 17.8435C96.3595 17.932 96.4476 17.9932 96.5493 17.9932H99.7694C99.9389 17.9932 100.054 17.8231 99.9864 17.6667L92.7936 0.14966C92.7598 0.0612245 92.6716 0 92.5767 0H90.604C90.5091 0 90.4209 0.0544218 90.387 0.142857L82.8147 17.6667C82.7469 17.8231 82.8621 18 83.0316 18H86.1568C86.2517 18 86.3398 17.9456 86.3737 17.8571L87.5398 15.0884L89.0515 11.3946V11.3878Z" fill="black"/>
<path d="M14.982 0.326538L4.18955 18H0L10.9687 0.326538H14.982Z" fill="#06B6D4"/>
</g>
<defs>
<clipPath id="clip0_8298_10492">
<rect width="100" height="18" fill="white"/>
</clipPath>
</defs>
</svg>
